<?xml version="1.0" standalone="no"?>
<!DOCTYPE svg PUBLIC "-//W3C//DTD SVG 20010904//EN"
 "http://www.w3.org/TR/2001/REC-SVG-20010904/DTD/svg10.dtd">
<svg version="1.0" xmlns="http://www.w3.org/2000/svg"
 width="400.000000pt" height="400.000000pt" viewBox="0 0 400.000000 400.000000"
 preserveAspectRatio="xMidYMid meet">
<metadata>
Created by potrace 1.14, written by Peter Selinger 2001-2017
</metadata>
<g transform="translate(0.000000,400.000000) scale(0.100000,-0.100000)"
fill="#000000" stroke="none">
<path d="M0 2000 l0 -2000 2000 0 2000 0 0 2000 0 2000 -2000 0 -2000 0 0
-2000z m2052 503 c17 -15 18 -45 18 -526 0 -461 -2 -512 -17 -529 -22 -24 -77
-24 -103 2 -19 19 -20 33 -20 525 0 492 1 506 20 525 24 24 77 26 102 3z
m-302 -165 c19 -21 20 -33 20 -363 0 -330 -1 -342 -20 -363 -26 -28 -73 -29
-100 -2 -17 17 -20 33 -20 124 0 117 -13 149 -64 149 -39 0 -55 -21 -65 -83
-13 -81 -66 -106 -116 -55 -25 24 -25 25 -25 230 0 205 0 206 25 230 50 51
103 26 116 -54 10 -66 22 -81 65 -81 53 0 64 26 64 147 0 90 3 106 20 123 27
27 74 26 100 -2z m601 3 c22 -18 24 -29 29 -133 3 -62 9 -119 13 -125 12 -18
67 -16 89 4 11 10 18 30 18 55 0 72 74 114 120 68 19 -19 20 -33 20 -235 0
-202 -1 -216 -20 -235 -45 -45 -120 -4 -120 66 0 21 -7 46 -17 56 -19 21 -78
24 -90 6 -4 -7 -10 -64 -13 -126 -5 -104 -7 -115 -29 -133 -30 -24 -62 -24
-92 0 l-24 19 0 347 0 347 24 19 c30 24 62 24 92 0z m-1141 -261 c26 -26 33
-59 28 -132 -4 -48 -9 -65 -27 -79 -30 -24 -63 -24 -92 0 -22 18 -24 27 -24
106 0 79 2 88 24 106 30 24 66 24 91 -1z m1675 -5 c22 -21 25 -33 25 -100 0
-67 -3 -79 -25 -100 -30 -30 -54 -31 -89 -4 -24 19 -26 26 -26 104 0 78 2 85
26 104 35 27 59 26 89 -4z"/>
</g>
</svg>
